<svg width="156" height="65" viewBox="0 0 156 65" fill="none" xmlns="http://www.w3.org/2000/svg">
<path d="M39.0993 24.936C39.6113 23.9547 39.9526 23.08 40.1233 22.312C40.2939 21.544 40.3793 20.5093 40.3793 19.208V7.368C40.3793 6.06667 40.2939 5.032 40.1233 4.264C39.9526 3.496 39.6113 2.62133 39.0993 1.64V1.576H45.3393V1.64C44.8059 2.62133 44.4539 3.48533 44.2833 4.232C44.1339 4.97867 44.0593 6.024 44.0593 7.368V12.616H55.2273V7.368C55.2273 6.024 55.1419 4.97867 54.9713 4.232C54.8219 3.48533 54.4806 2.62133 53.9473 1.64V1.576H60.1873V1.64C59.6539 2.62133 59.3019 3.48533 59.1313 4.232C58.9819 4.97867 58.9073 6.024 58.9073 7.368V19.208C58.9073 20.552 58.9819 21.5973 59.1313 22.344C59.3019 23.0907 59.6539 23.9547 60.1873 24.936V25H53.9473V24.936C54.4806 23.9547 54.8219 23.0907 54.9713 22.344C55.1419 21.5973 55.2273 20.552 55.2273 19.208V13.256H44.0593V19.208C44.0593 20.552 44.1339 21.5973 44.2833 22.344C44.4539 23.0907 44.8059 23.9547 45.3393 24.936V25H39.0993V24.936ZM76.2215 23.08C74.6002 24.68 72.6695 25.48 70.4295 25.48C68.1895 25.48 66.2588 24.68 64.6375 23.08C63.0375 21.4587 62.2375 19.56 62.2375 17.384C62.2375 15.2293 63.0482 13.3413 64.6695 11.72C66.3122 10.0773 68.2322 9.256 70.4295 9.256C72.6482 9.256 74.5682 10.0773 76.1895 11.72C77.8322 13.3413 78.6535 15.2293 78.6535 17.384C78.6535 19.56 77.8428 21.4587 76.2215 23.08ZM66.9095 22.696C67.6988 24.1253 68.8722 24.84 70.4295 24.84C71.9868 24.84 73.1602 24.1253 73.9495 22.696C74.7388 21.2667 75.1335 19.496 75.1335 17.384C75.1335 15.2933 74.7282 13.5227 73.9175 12.072C73.1282 10.6213 71.9655 9.896 70.4295 9.896C68.9148 9.896 67.7522 10.6213 66.9415 12.072C66.1522 13.5227 65.7575 15.2933 65.7575 17.384C65.7575 19.496 66.1415 21.2667 66.9095 22.696ZM85.3568 25.48C82.9674 25.48 81.7728 24.1893 81.7728 21.608V10.312H80.0448V10.12L84.6848 6.12H85.0048V9.736H89.1328V10.312H85.0048V21.512C85.0048 23.0907 85.7514 23.88 87.2448 23.88C88.0554 23.88 88.7594 23.6987 89.3568 23.336L89.4528 23.464C88.4928 24.808 87.1274 25.48 85.3568 25.48ZM104.086 20.744C103.638 22.152 102.87 23.2933 101.782 24.168C100.694 25.0427 99.35 25.48 97.75 25.48C95.638 25.48 93.91 24.744 92.566 23.272C91.222 21.7787 90.55 19.9013 90.55 17.64C90.55 15.208 91.3073 13.2027 92.822 11.624C94.358 10.0453 96.0647 9.256 97.942 9.256C99.734 9.256 101.217 9.928 102.39 11.272C103.585 12.5947 104.139 14.0027 104.054 15.496H93.782V16.104C93.782 18.3013 94.2833 19.9653 95.286 21.096C96.2887 22.2053 97.654 22.76 99.382 22.76C101.217 22.76 102.721 22.0453 103.894 20.616L104.086 20.744ZM97.814 9.832C96.6407 9.832 95.7127 10.312 95.03 11.272C94.3687 12.2107 93.974 13.448 93.846 14.984L100.79 14.824V14.472C100.79 11.3787 99.798 9.832 97.814 9.832ZM105.91 24.936C106.38 23.9333 106.614 22.472 106.614 20.552V5.992C106.614 4.328 106.134 2.952 105.174 1.864V1.8L109.814 0.103998V20.52C109.814 22.5893 110.06 24.0613 110.55 24.936V25H105.91V24.936ZM0.0211251 56.936C0.533125 55.9547 0.874458 55.08 1.04513 54.312C1.21579 53.544 1.30113 52.5093 1.30113 51.208V39.368C1.30113 38.0667 1.21579 37.032 1.04513 36.264C0.874458 35.496 0.533125 34.6213 0.0211251 33.64V33.576H8.18113C13.5785 33.576 16.2771 35.4427 16.2771 39.176C16.2771 40.5627 15.8931 41.7787 15.1251 42.824C14.3571 43.848 13.1945 44.6053 11.6371 45.096L15.4451 52.552C16.1065 53.8747 16.6718 54.8027 17.1411 55.336C17.6318 55.8693 18.3038 56.3493 19.1571 56.776V57H13.5251L7.76513 45.704H4.98113V51.208C4.98113 52.552 5.05579 53.5973 5.20513 54.344C5.37579 55.0907 5.72779 55.9547 6.26113 56.936V57H0.0211251V56.936ZM7.47713 34.216H6.51713C5.89846 34.216 5.38646 34.2267 4.98113 34.248V45.064H7.47713C10.8478 45.064 12.5331 43.0907 12.5331 39.144C12.5331 37.5653 12.1491 36.3493 11.3811 35.496C10.6345 34.6427 9.33313 34.216 7.47713 34.216ZM32.6641 52.744C32.2161 54.152 31.4481 55.2933 30.3601 56.168C29.2721 57.0427 27.9281 57.48 26.3281 57.48C24.2161 57.48 22.4881 56.744 21.1441 55.272C19.8001 53.7787 19.1281 51.9013 19.1281 49.64C19.1281 47.208 19.8855 45.2027 21.4001 43.624C22.9361 42.0453 24.6428 41.256 26.5201 41.256C28.3121 41.256 29.7948 41.928 30.9681 43.272C32.1628 44.5947 32.7175 46.0027 32.6321 47.496H22.3601V48.104C22.3601 50.3013 22.8615 51.9653 23.8641 53.096C24.8668 54.2053 26.2321 54.76 27.9601 54.76C29.7948 54.76 31.2988 54.0453 32.4721 52.616L32.6641 52.744ZM26.3921 41.832C25.2188 41.832 24.2908 42.312 23.6081 43.272C22.9468 44.2107 22.5521 45.448 22.4241 46.984L29.3681 46.824V46.472C29.3681 43.3787 28.3761 41.832 26.3921 41.832ZM42.3774 55.336C43.9134 55.336 45.172 54.76 46.1534 53.608V45.384C45.62 43.016 44.404 41.832 42.5054 41.832C41.1187 41.832 40.0094 42.4933 39.1774 43.816C38.3454 45.1387 37.9294 46.856 37.9294 48.968C37.9294 50.9307 38.3027 52.488 39.0494 53.64C39.8174 54.7707 40.9267 55.336 42.3774 55.336ZM46.1854 54.248C45.6734 55.1653 44.9374 55.9333 43.9774 56.552C43.0387 57.1707 41.9507 57.48 40.7134 57.48C38.8574 57.48 37.364 56.7867 36.2334 55.4C35.124 53.992 34.5694 52.2107 34.5694 50.056C34.5694 47.5813 35.3054 45.5013 36.7774 43.816C38.2494 42.1093 40.2974 41.256 42.9214 41.256C44.0947 41.256 45.172 41.448 46.1534 41.832V38.024C46.1534 36.3387 45.6734 34.952 44.7134 33.864V33.8L49.3534 32.104V50.184C49.3534 52.2533 49.4494 53.672 49.6414 54.44C49.8547 55.1867 50.2494 55.8053 50.8254 56.296V56.36L46.2814 57.384V54.248H46.1854ZM60.3774 55.336C61.9134 55.336 63.172 54.76 64.1534 53.608V45.384C63.62 43.016 62.404 41.832 60.5054 41.832C59.1187 41.832 58.0094 42.4933 57.1774 43.816C56.3454 45.1387 55.9294 46.856 55.9294 48.968C55.9294 50.9307 56.3027 52.488 57.0494 53.64C57.8174 54.7707 58.9267 55.336 60.3774 55.336ZM64.1854 54.248C63.6734 55.1653 62.9374 55.9333 61.9774 56.552C61.0387 57.1707 59.9507 57.48 58.7134 57.48C56.8574 57.48 55.364 56.7867 54.2334 55.4C53.124 53.992 52.5694 52.2107 52.5694 50.056C52.5694 47.5813 53.3054 45.5013 54.7774 43.816C56.2494 42.1093 58.2974 41.256 60.9214 41.256C62.0947 41.256 63.172 41.448 64.1534 41.832V38.024C64.1534 36.3387 63.6734 34.952 62.7134 33.864V33.8L67.3534 32.104V50.184C67.3534 52.2533 67.4494 53.672 67.6414 54.44C67.8547 55.1867 68.2494 55.8053 68.8254 56.296V56.36L64.2814 57.384V54.248H64.1854ZM74.9176 34.568C75.3016 34.952 75.4936 35.4107 75.4936 35.944C75.4936 36.4773 75.3016 36.936 74.9176 37.32C74.555 37.6827 74.107 37.864 73.5736 37.864C73.0403 37.864 72.5816 37.6827 72.1976 37.32C71.835 36.936 71.6536 36.4773 71.6536 35.944C71.6536 35.4107 71.835 34.952 72.1976 34.568C72.5816 34.184 73.0403 33.992 73.5736 33.992C74.107 33.992 74.555 34.184 74.9176 34.568ZM71.3976 56.936C71.8883 54.8667 72.1336 52.8187 72.1336 50.792V47.144C72.1336 45.48 71.6536 44.104 70.6936 43.016V42.792L75.3336 41.096V50.76C75.3336 52.3387 75.3763 53.5653 75.4616 54.44C75.547 55.2933 75.739 56.1253 76.0376 56.936V57H71.3976V56.936ZM83.6314 57H78.9914V56.936C79.482 55.4853 79.7274 53.4373 79.7274 50.792V47.016C79.7274 45.3307 79.2474 43.944 78.2874 42.856V42.792L82.7994 41.096V44.168L82.9274 44.2C84.5487 42.2373 86.266 41.256 88.0794 41.256C89.53 41.256 90.6394 41.672 91.4074 42.504C92.1967 43.3147 92.5914 44.4453 92.5914 45.896V50.76C92.5914 52.36 92.634 53.5867 92.7194 54.44C92.8047 55.272 93.0074 56.104 93.3274 56.936V57H88.6874V56.936C89.1567 55.4213 89.3914 53.3733 89.3914 50.792V46.632C89.3914 45.6293 89.146 44.808 88.6554 44.168C88.186 43.528 87.45 43.208 86.4474 43.208C85.1034 43.208 83.93 43.7413 82.9274 44.808V50.76C82.9274 53.5973 83.162 55.656 83.6314 56.936V57ZM99.1564 46.728C99.1564 49.9707 100.116 51.592 102.036 51.592C103.956 51.592 104.916 49.9707 104.916 46.728C104.916 43.464 103.946 41.832 102.004 41.832C100.106 41.832 99.1564 43.464 99.1564 46.728ZM110.228 59.112C110.186 60.5627 109.418 61.768 107.924 62.728C106.431 63.7093 104.372 64.2 101.748 64.2C99.679 64.2 97.9937 63.8693 96.6924 63.208C95.391 62.568 94.7404 61.6827 94.7404 60.552C94.7404 59.1227 95.7537 58.1307 97.7804 57.576C96.5644 57.128 95.9564 56.296 95.9564 55.08C95.9564 54.1627 96.2764 53.416 96.9164 52.84C97.5777 52.2427 98.3777 51.8267 99.3164 51.592C98.2924 51.144 97.471 50.4933 96.8524 49.64C96.255 48.7653 95.9564 47.7947 95.9564 46.728C95.9564 45.192 96.543 43.9013 97.7164 42.856C98.8897 41.7893 100.319 41.256 102.004 41.256C103.668 41.256 105.098 41.7893 106.292 42.856L110.356 40.488L110.42 40.52V43.368H110.292L106.74 43.304C107.658 44.2853 108.116 45.4267 108.116 46.728C108.116 48.2213 107.519 49.5013 106.324 50.568C105.151 51.6347 103.722 52.168 102.036 52.168C101.29 52.168 100.522 52.0293 99.7324 51.752C98.7937 52.2 98.3244 52.7867 98.3244 53.512C98.3244 54.0667 98.5804 54.4613 99.0924 54.696C99.6257 54.9093 100.436 55.0373 101.524 55.08L104.724 55.176C106.346 55.2187 107.679 55.5813 108.724 56.264C109.77 56.9253 110.271 57.8747 110.228 59.112ZM103.06 63.08C104.788 63.08 106.111 62.824 107.028 62.312C107.946 61.8213 108.404 61.1707 108.404 60.36C108.404 59.0587 107.103 58.3547 104.5 58.248L101.044 58.12C99.935 58.0773 99.007 57.9493 98.2604 57.736C97.727 58.2267 97.4604 58.8773 97.4604 59.688C97.4604 60.776 97.9404 61.608 98.9004 62.184C99.8604 62.7813 101.247 63.08 103.06 63.08ZM116.685 57.48C114.296 57.48 113.101 56.1893 113.101 53.608V42.312H111.373V42.12L116.013 38.12H116.333V41.736H120.461V42.312H116.333V53.512C116.333 55.0907 117.08 55.88 118.573 55.88C119.384 55.88 120.088 55.6987 120.685 55.336L120.781 55.464C119.821 56.808 118.456 57.48 116.685 57.48ZM135.862 55.08C134.241 56.68 132.31 57.48 130.07 57.48C127.83 57.48 125.899 56.68 124.278 55.08C122.678 53.4587 121.878 51.56 121.878 49.384C121.878 47.2293 122.689 45.3413 124.31 43.72C125.953 42.0773 127.873 41.256 130.07 41.256C132.289 41.256 134.209 42.0773 135.83 43.72C137.473 45.3413 138.294 47.2293 138.294 49.384C138.294 51.56 137.483 53.4587 135.862 55.08ZM126.55 54.696C127.339 56.1253 128.513 56.84 130.07 56.84C131.627 56.84 132.801 56.1253 133.59 54.696C134.379 53.2667 134.774 51.496 134.774 49.384C134.774 47.2933 134.369 45.5227 133.558 44.072C132.769 42.6213 131.606 41.896 130.07 41.896C128.555 41.896 127.393 42.6213 126.582 44.072C125.793 45.5227 125.398 47.2933 125.398 49.384C125.398 51.496 125.782 53.2667 126.55 54.696ZM145.381 57H140.741V56.936C141.232 55.4853 141.477 53.4373 141.477 50.792V47.016C141.477 45.3307 140.997 43.944 140.037 42.856V42.792L144.549 41.096V44.168L144.677 44.2C146.299 42.2373 148.016 41.256 149.829 41.256C151.28 41.256 152.389 41.672 153.157 42.504C153.947 43.3147 154.341 44.4453 154.341 45.896V50.76C154.341 52.36 154.384 53.5867 154.469 54.44C154.555 55.272 154.757 56.104 155.077 56.936V57H150.437V56.936C150.907 55.4213 151.141 53.3733 151.141 50.792V46.632C151.141 45.6293 150.896 44.808 150.405 44.168C149.936 43.528 149.2 43.208 148.197 43.208C146.853 43.208 145.68 43.7413 144.677 44.808V50.76C144.677 53.5973 144.912 55.656 145.381 56.936V57Z" fill="#E3B6A4"/>
</svg>
