<svg width="24" height="24" viewBox="0 0 24 24" fill="none" xmlns="http://www.w3.org/2000/svg">
<path d="M10.0511 4.28499L10.1688 4.49439L10.4058 4.53338C10.9906 4.62959 11.5222 4.93043 11.9058 5.38222C12.2894 5.83401 12.5 6.40737 12.5 7.00001C12.5 7.00003 12.5 7.00004 12.5 7.00005V8.50001H7.5V7.00001C7.5 6.13447 7.93922 5.37124 8.60854 4.92224L9.14446 4.56274L8.6625 4.13359C8.30248 3.81302 7.85745 3.60338 7.38103 3.52991C6.9046 3.45644 6.41709 3.52227 5.97722 3.71949C5.53735 3.9167 5.16388 4.23689 4.90179 4.64147C4.6397 5.04606 4.50017 5.51779 4.5 5.99984V6.00001V12V12.5H5H21C21.1326 12.5 21.2598 12.5527 21.3536 12.6465C21.4473 12.7402 21.5 12.8674 21.5 13C21.5 13.1326 21.4473 13.2598 21.3536 13.3536C21.2598 13.4473 21.1326 13.5 21 13.5H20.5V14V15V15.0001C20.5001 16.1378 20.1476 17.2475 19.4909 18.1765C18.8343 19.1056 17.9057 19.8082 16.8332 20.1877L16.5 20.3055V20.659V21C16.5 21.1326 16.4473 21.2598 16.3536 21.3536C16.2598 21.4473 16.1326 21.5 16 21.5C15.8674 21.5 15.7402 21.4473 15.6464 21.3536C15.5527 21.2598 15.5 21.1326 15.5 21V20.5H15H9H8.5V21C8.5 21.1326 8.44732 21.2598 8.35355 21.3536C8.25979 21.4473 8.13261 21.5 8 21.5C7.86739 21.5 7.74021 21.4473 7.64645 21.3536C7.55268 21.2598 7.5 21.1326 7.5 21V20.659V20.3055L7.16678 20.1877C6.09426 19.8082 5.16574 19.1056 4.50907 18.1765C3.8524 17.2475 3.49986 16.1378 3.5 15.0001V15V14V13.5H3C2.86739 13.5 2.74021 13.4473 2.64645 13.3536C2.55268 13.2598 2.5 13.1326 2.5 13C2.5 12.8674 2.55268 12.7402 2.64645 12.6465C2.74021 12.5527 2.86739 12.5 3 12.5H3.5V12V6.00001V5.99999C3.49996 5.22604 3.75645 4.4739 4.22936 3.86124C4.70226 3.24857 5.3649 2.80992 6.11362 2.61392C6.86233 2.41791 7.6549 2.4756 8.36735 2.77796C9.07979 3.08032 9.67193 3.6103 10.0511 4.28499ZM19.5 14V13.5H19H5H4.5V14V15C4.5 16.1935 4.97411 17.3381 5.81802 18.182C6.66193 19.0259 7.80653 19.5 9 19.5H15C16.1935 19.5 17.3381 19.0259 18.182 18.182C19.0259 17.3381 19.5 16.1935 19.5 15V14ZM8.5 7.00001V7.50001H9H11H11.5V7.00001C11.5 6.60219 11.342 6.22066 11.0607 5.93935C10.7794 5.65805 10.3978 5.50001 10 5.50001C9.60218 5.50001 9.22064 5.65805 8.93934 5.93935C8.65804 6.22066 8.5 6.60219 8.5 7.00001Z" stroke="#152D1E" stroke-opacity="0.7"/>
</svg>
